<svg version="1.2" xmlns="http://www.w3.org/2000/svg" viewBox="0 0 852 681" width="852" height="681">
	<title>Capture</title>
	<style>
		.s0 { fill: #000000 } 
	</style>
	<g id="Background">
		<path id="Path 0" class="s0" d="m302.5 534c2.4 0 3.5 0.5 3.5 1.5 0 1-1.1 1.5-3.5 1.5-2.4 0-3.5-0.5-3.5-1.5 0-1 1.1-1.5 3.5-1.5z"/>
		<path id="Path 1" class="s0" d="m601.1 461.9l9.3 0.6 19.6 33v-33.5l8.5 0.5 0.5 49.5-9.5 0.1-19-32.2-0.5 32.1h-9l0.1-25.1z"/>
		<path id="Path 2" class="s0" d="m555 462h8v14.3c0 7.8 0.5 16 1 18.2 0.5 2.4 2.1 5.1 3.9 6.8 2.3 2 4.1 2.7 7.1 2.7 2.2 0 5.4-0.8 7-1.8 1.7-0.9 3.7-3.2 4.5-5 1.1-2.4 1.5-7.2 1.5-35.2l8.5 0.5v17.5c0 16.8-0.1 17.7-2.5 22-1.4 2.4-4.5 5.8-6.8 7.5-3.9 2.7-5.2 3-11.7 3-6.5 0-7.8-0.3-11.6-3-2.4-1.7-5.3-5-6.6-7.5-2.2-4.2-2.3-5.5-2.3-22.2z"/>
		<path id="Path 3" class="s0" d="m464.5 462l6.8 11c3.7 6 7 10.8 7.5 10.6 0.4-0.2 3.6-5 7.2-10.6 3.6-5.7 6.9-10.5 7.5-10.7 0.6-0.2 2.9-0.3 9.5 0.2l-20 32v17.5h-9l-0.1-18.5-8.9-14c-4.9-7.7-9.2-14.8-9.6-15.8-0.6-1.5-0.1-1.7 9.1-1.7z"/>
		<path id="Path 4" class="s0" d="m438 462v9h-14v41h-9v-41h-15l-0.2-3.8c-0.1-2.1 0.2-4.2 0.7-4.5 0.5-0.4 9.1-0.7 37.5-0.7z"/>
		<path id="Path 5" class="s0" d="m359 462h4.5c4.1 0 4.7 0.3 6.9 3.8 1.3 2 5.8 9.6 17.6 29.7v-33.5h9v50h-9.5l-19-32.4-0.5 32.4h-9v-25z"/>
		<path id="Path 6" class="s0" d="m324.3 462h9.2l11 24.1c6.1 13.3 11.1 24.6 11.2 25.1 0.2 0.4-1.8 0.8-9.2 0.8l-8.5-19c-4.7-10.4-8.7-19-9-19-0.3 0-2.6 4.8-10 21h6.5c6.5 0 6.5 0 8 3.5 0.8 1.9 1.5 3.9 1.5 4.5 0 0.6-4 1-20 1l-1.8 4c-1.6 3.9-1.8 4.1-6.5 4-2.6 0-4.6-0.4-4.5-0.9 0.2-0.4 5.2-11.7 11.2-25z"/>
		<path id="Path 7" class="s0" d="m277 462l6.8 11c3.7 6 6.9 11 7.2 11 0.3 0.1 3.6-4.9 14.5-22.1l4.8 0.1c2.6 0 4.7 0.2 4.7 0.5 0 0.3-4.3 7.4-19 31v18.5h-9l-0.1-17.5-9.9-15.7c-5.5-8.7-10-16-10-16.3 0-0.3 2.3-0.5 10-0.5z"/>
		<path id="Path 8" class="s0" d="m246.5 462.2c7.4 0.3 12 1 14 2 1.6 0.9 4.2 2.9 5.7 4.5 1.5 1.5 3.2 4 3.7 5.6 0.6 1.5 1.1 4.2 1.1 6 0 1.7-0.9 5-1.9 7.2-0.9 2.2-3.2 5.2-8.1 9.5l10 15h-10.5l-4.5-7c-3.8-5.8-4.9-7-7.3-7-1.5 0-2.7-0.1-2.7-0.2 0-0.2 0.6-2 1.5-4 1.3-3.3 2-3.9 5.7-4.5 2.5-0.3 5.2-1.6 6.5-3 1.5-1.5 2.3-3.5 2.3-5.8 0-2.3-0.8-4.5-2.4-6.2-2.2-2.5-3.2-2.8-16.6-3.3v41h-9l-0.2-24.3c-0.1-13.8 0.3-24.7 0.8-25.1 0.5-0.5 5.8-0.6 11.9-0.4z"/>
		<path id="Path 9" fill-rule="evenodd" class="s0" d="m527.5 461.7c2.8 0.2 6.4 1 8 1.7 1.6 0.7 4.5 2.6 6.4 4.2 1.8 1.6 4.5 4.9 6 7.4 2.2 3.8 2.6 5.7 2.6 12 0 5.5-0.5 8.6-2 11.5-1.1 2.2-3.4 5.3-5 7-1.7 1.6-4.8 3.9-7 5-3 1.5-5.9 2-11.5 2-5.6-0.1-8.5-0.6-11.5-2.1-2.2-1.2-5.7-4.1-7.8-6.5-2.3-2.7-4.4-6.5-5.4-9.9-0.9-3.5-1.3-7.2-0.9-10 0.4-2.5 2.1-7 3.9-10 2.4-4.1 4.6-6.3 8.7-8.7 3-1.8 6.6-3.5 8-3.7 1.4-0.2 4.8-0.2 7.5 0.1zm-15.7 14.9c-1 1.6-2.4 4.4-3.1 6.3-0.7 2-0.8 4.8-0.4 7 0.4 2 1.6 5.1 2.7 6.9 1.1 1.7 3.9 4.2 6.3 5.3 3.1 1.6 5.5 2 9.4 1.8 3.2-0.3 6.2-1.2 8-2.5 1.5-1.2 3.7-3.4 4.8-4.9 1.2-1.6 2.2-4.8 2.4-7.8 0.3-4-0.1-6.1-1.8-9.2-1.2-2.2-3.6-5-5.4-6.2-1.8-1.2-5.2-2.5-7.7-2.8-3.2-0.4-5.8 0-8.9 1.3-2.5 1.1-5.3 3.2-6.3 4.8z"/>
		<path id="Path 10" fill-rule="evenodd" class="s0" d="m411 174.1c27.3 0 38.5 0.3 44.5 1.4 5.2 0.9 11 2.9 16.5 5.6 6.9 3.4 10.2 6 17.5 13.3 7 7 9.9 10.9 12.7 16.6 2.1 4.1 4.5 10.7 5.3 14.5 1.2 5 1.6 10.2 1.3 18-0.3 8.2-1 12.8-5.3 25.7l5.9 5.1c3.2 2.9 8 8.3 10.5 12.2 2.6 3.9 5.7 9.9 6.9 13.5 1.2 3.6 2.6 9.4 3.2 13 0.5 3.6 1 8.6 1 11.3 0 2.6-0.7 8.2-1.6 12.5-0.8 4.2-2.9 10.6-4.5 14.2-1.7 3.6-5.4 9.6-8.2 13.3-2.9 3.7-7.9 8.9-11.2 11.5-3.3 2.7-7.4 5.6-9 6.7-1.6 1-5.9 3-9.5 4.4-6.2 2.4-7.6 2.6-58.5 3.6l-1 20.7-3.5 2.9c-2.7 2.3-4.5 2.9-8 2.9-4-0.1-6.8-1.5-27-14.4-12.4-7.9-24-16-25.8-18-1.7-2-4.3-5.7-5.6-8.3-1.3-2.7-2.9-7.5-3.5-10.8-0.9-4.3-1.1-29.3-0.6-173l2.2-4.2c1.3-2.4 4-5.9 6-7.9 2.1-1.9 5.8-4.1 8.3-4.9 3.4-1 13-1.4 41-1.4zm-45 112.7c0 73.3 0.1 76.4 2 81.5 1 2.8 3.4 6.6 5.2 8.4 1.8 1.7 12.2 8.8 23 15.7l19.8 12.6-0.5-147.5c-3.5-6.2-6-8.9-7.8-10.1-1.8-1.1-8.1-4.9-14.1-8.5-6-3.5-13.4-8.6-16.3-11.4-3.4-3.1-6.6-7.3-8.4-11l-2.9-6zm34.5-58.2c2.2 1.4 6.6 4 9.9 5.7 3.2 1.8 7.7 5.3 9.8 7.8 2.2 2.4 4.7 6.6 5.6 9.3l1.7 4.8c20.4-0.6 21.6-0.9 24-3.1 1.5-1.4 3.3-3.8 4.1-5.3 0.7-1.5 1.4-4.7 1.4-7 0-2.5-0.9-5.6-2-7.5-1.1-1.8-3.9-4.1-6.3-5.2-3.8-1.8-6.4-2-28.2-2h-24zm27.5 109.4c38.1 0 40.8-0.2 43.5-1.9 1.6-1 4.1-4 5.4-6.7 1.8-3.7 2.2-5.7 1.6-8.4-0.4-1.9-1.7-4.8-2.9-6.4-1.2-1.6-3.9-3.7-6.1-4.7-3.4-1.5-6.9-1.8-22.8-1.8l-18.7-0.1z"/>
		<path id="Path 11" class="s0" d="m671 461.6c2.5 0.3 6.3 1.4 8.5 2.3 2.2 1 4.8 2.7 5.7 3.7 1.7 1.8 1.7 2-3.7 7.3l-5-2.4c-2.8-1.4-6.4-2.5-8-2.5-1.6 0-4.9 0.9-7.3 2-2.8 1.4-5 3.4-6.7 6.2-1.7 3-2.5 5.9-2.5 9.3 0 3.6 0.6 6 2.2 8.4 1.3 1.9 3.6 4.4 5.1 5.5 1.8 1.3 4.9 2.3 8 2.5 4.1 0.3 6.1-0.1 9.5-2 2.4-1.3 5.2-3.8 6.3-5.4 1-1.7 1.9-3.3 1.9-3.8 0-0.4-5-0.7-11-0.7-8.1 0-11-0.3-11-1.3 0-0.6 0.3-2.7 1.5-7.7h14.8c14.4 0 14.7 0 15.1 2.2 0.3 1.3 0.1 4.1-0.3 6.3-0.4 2.2-1.8 6-3.2 8.5-1.3 2.4-4.3 5.9-6.6 7.7-2.4 1.8-6.2 3.8-8.6 4.4-2.3 0.6-6.5 0.9-9.2 0.7-2.8-0.3-6.8-1.3-9-2.4-2.2-1-5.4-3.4-7.2-5.2-1.8-1.7-4-4.7-4.9-6.5-0.9-1.7-1.9-5.9-2.2-9.2-0.4-4.5-0.1-7.3 1.3-11 1.1-2.8 3.1-6.3 4.5-7.9 1.4-1.6 3.9-3.8 5.5-5 1.6-1.1 5-2.6 7.5-3.3 2.5-0.7 6.5-1 9-0.7z"/>
		<path id="Path 12" fill-rule="evenodd" class="s0" d="m203.5 462.2c11.5 0.3 13.4 0.6 16.3 2.6 1.7 1.2 3.9 3.7 4.9 5.5 0.9 1.7 1.6 5.2 1.5 7.7-0.1 2.5-0.6 5.1-1.2 5.8-0.7 0.8-0.3 2 1.3 4 1.3 1.5 2.7 4.3 3.1 6.2 0.4 1.9 0.5 4.9 0.2 6.5-0.3 1.6-1.4 4.2-2.6 5.8-1.1 1.5-3.3 3.4-5 4.2-2 1-6 1.5-21 1.5l3.7-8.5 6.9-0.3c5.1-0.2 7.2-0.7 8.2-2 0.7-0.9 1.2-2.7 1.2-3.9 0-1.3-0.7-3-1.5-3.8-1.1-1.1-3.9-1.5-21.5-1.5v20h-9l-0.2-24.3c-0.1-13.8 0.3-24.7 0.8-25.1 0.5-0.5 6.7-0.6 13.9-0.4zm-5.5 20.8c14.7 0 16.3-0.3 18-2 1.1-1.1 2-2.9 2-4 0-1.1-0.9-2.9-2-4-1.7-1.7-3.3-2-10-2h-8z"/>
		<path id="Path 13" class="s0" d="m198 527h6c4.7 0 6 0.3 6 1.5 0 1.1-1.1 1.5-4 1.5-2.9 0-4 0.4-4 1.5 0 1 1.1 1.5 3.5 1.5 2.4 0 3.5 0.5 3.5 1.5 0 1-1.1 1.5-3.5 1.5-3.1 0-3.5 0.3-3.5 2.5 0 1.8-0.5 2.5-2 2.5-1.8 0-2-0.7-2-7z"/>
		<path id="Path 14" fill-rule="evenodd" class="s0" d="m221.9 527c2.1-0.1 4.7 0.7 6.1 1.8 2.2 1.7 2.3 2.3 1.4 4.3-0.9 1.9-0.9 2.8 0.2 4.4 0.8 1.1 1.4 2.3 1.4 2.8 0 0.4-0.9 0.7-2 0.7-1.1 0-2-0.5-2-1 0-0.5-0.7-1.7-1.5-2.5-0.8-0.8-2.2-1.5-3-1.5-0.9 0-1.5 0.9-1.5 2.5 0 1.8-0.5 2.5-2 2.5-1.8 0-2-0.7-2.2-6.3-0.1-3.5 0.2-6.7 0.7-7 0.5-0.4 2.4-0.7 4.4-0.7zm1.6 6c1.5 0 2.4-0.5 2.2-1.3-0.2-0.6-1.3-1.3-2.4-1.5-1.4-0.2-2.2 0.2-2.2 1.2-0.1 1.1 0.8 1.6 2.4 1.6z"/>
		<path id="Path 15" fill-rule="evenodd" class="s0" d="m245.7 527c1.2 0 3.4 1.1 4.8 2.5 1.4 1.4 2.5 3.6 2.5 5 0 1.4-0.9 3.4-2 4.5q-2 2-6 2c-3 0-4.4-0.5-5.5-2.3-0.8-1.2-1.6-3.4-1.6-4.9-0.1-1.8 0.8-3.3 2.7-4.7 1.5-1.2 3.8-2.1 5.1-2.1zm-3.5 8c0.2 2 0.8 2.5 3.3 2.5 2.4 0 3.1-0.5 3.4-2.4 0.3-1.7-0.2-2.9-1.5-3.8-1-0.7-2.2-1.3-2.5-1.3-0.4 0-1.2 0.6-1.8 1.3-0.6 0.6-1 2.3-0.9 3.7z"/>
		<path id="Path 16" class="s0" d="m262.3 527c0.6 0 2.9 1.9 8.6 8.5l0.1-4.3c0-3 0.4-4.2 1.5-4.2 1.2 0 1.5 1.4 1.5 7 0 5.6-0.3 7-1.5 7-0.8 0-3.1-1.7-8.4-7.5l-0.1 3.8c0 2.6-0.4 3.7-1.5 3.7-1.2 0-1.5-1.4-1.5-7 0-4.9 0.4-7 1.2-7z"/>
		<path id="Path 17" class="s0" d="m288.2 527c4.5 0 5.8 0.3 5.8 1.5 0 0.8-0.9 1.5-2 1.5-1.8 0-2 0.7-2 5.5 0 4.8-0.2 5.5-2 5.5-1.8 0-2-0.7-2-5.5 0-5.2-0.1-5.5-2.5-5.5-1.4 0-2.6-0.4-2.7-0.8-0.1-0.5 0.2-1.2 0.7-1.5 0.5-0.4 3.5-0.7 6.7-0.7z"/>
		<path id="Path 18" class="s0" d="m313 527h6c4.7 0 6 0.3 6 1.5 0 1.1-1.1 1.5-4 1.5-2.9 0-4 0.4-4 1.5 0 1 1.1 1.5 3.5 1.5 2.4 0 3.5 0.5 3.5 1.5 0 1-1.1 1.5-3.5 1.5-1.9 0-3.5 0.5-3.5 1 0 0.5 1.8 1 4 1 2.9 0 4 0.4 4 1.5 0 1.2-1.3 1.5-12 1.5v-7z"/>
		<path id="Path 19" class="s0" d="m334.9 527c0.3-0.1 2.3 1.7 8.1 8v-4c0-3.2 0.3-4 1.8-3.7 1.4 0.2 1.7 1.4 2 7 0.2 6.1 0 6.7-1.8 6.7-1.1 0-3.3-1.7-7.9-7.5l-0.1 3.8c0 3-0.4 3.7-2 3.7-1.8 0-2-0.7-2.2-6.3-0.1-3.5 0.2-6.7 0.7-7 0.5-0.4 1.1-0.7 1.4-0.7z"/>
		<path id="Path 20" fill-rule="evenodd" class="s0" d="m355 527h4.3c2.7-0.1 5.1 0.6 6.7 1.9 1.9 1.4 2.5 2.9 2.5 5.6 0 2.5-0.6 4.1-2 5.1-1.1 0.8-4.1 1.4-11.5 1.4zm6.8 10.8c2-0.2 2.8-0.9 3-2.8 0.2-1.6-0.3-3-1.5-3.8-1-0.7-2.4-1.2-3-1.2-0.8 0-1.3 1.5-1.3 4 0 3.8 0.2 4 2.8 3.8z"/>
		<path id="Path 21" class="s0" d="m387.8 527.2c0.8 0.2 2 2.1 3.8 8.3l1-4c0.5-2.3 1.6-4 2.3-4 0.8 0 1.9 1.6 2.6 3.5 0.6 1.9 1.4 3 1.7 2.5 0.3-0.6 0.8-2.2 1.2-3.8 0.3-1.5 1.2-2.7 1.8-2.7 0.7 0 1.6 0.3 2 0.7 0.3 0.4-0.3 3.6-1.5 7.1-1.8 5.1-2.6 6.2-4.2 6-1.1-0.2-2.2-1.4-3.2-5.3l-1.2 2.7c-0.6 1.6-1.9 2.8-2.9 2.8-1.2 0-2.2-1.6-3.5-6-0.9-3.3-1.7-6.5-1.6-7.1 0-0.6 0.8-0.9 1.7-0.7z"/>
		<path id="Path 22" class="s0" d="m418.7 527c4 0 5.3 0.4 5.3 1.5 0 1.1-1.1 1.5-4 1.5-2.9 0-4 0.4-4 1.5 0 1.1 1.1 1.5 4 1.5 2.9 0 4 0.4 4 1.5 0 1.1-1.1 1.5-4 1.5-2.2 0-4 0.5-4 1 0 0.5 1.8 1 4 1 2.9 0 4 0.4 4 1.5 0 1.2-1.3 1.5-12 1.5l-0.2-6.3c-0.1-3.5 0.2-6.7 0.7-7 0.5-0.4 3.2-0.7 6.2-0.7z"/>
		<path id="Path 23" fill-rule="evenodd" class="s0" d="m433.3 526.7l4.7 0.4c2.7 0.2 5.2 0.8 5.6 1.2 0.5 0.5 1 2.1 1.1 3.5 0 1.5 0.4 3.4 0.8 4.2 0.3 0.8-0.1 2.3-1 3.2-1.1 1.3-3.2 1.8-11.5 1.8zm5.2 6.3c1.5 0 2.4-0.5 2.2-1.3-0.2-0.7-1.3-1.4-2.4-1.6-1.4-0.2-2.2 0.3-2.2 1.3-0.1 1 0.8 1.6 2.4 1.6z"/>
		<path id="Path 24" fill-rule="evenodd" class="s0" d="m463 527h4.5c3.6 0 5 0.6 7.2 2.8 2.1 2.2 2.5 3.3 1.9 5.7-0.3 1.6-1.4 3.6-2.4 4.3-0.9 0.7-3.8 1.2-11.2 1.2zm6.7 10.8c2.3-0.3 2.8-0.8 2.9-3 0-2-0.6-3.1-2.3-3.8-1.2-0.5-2.5-1-2.8-1-0.3 0-0.5 1.8-0.5 4 0 3.8 0.2 4 2.7 3.7z"/>
		<path id="Path 25" class="s0" d="m485.1 526.9l5.6 0.3c3.5 0.2 5.8 0.8 6 1.6 0.2 0.8-1.1 1.2-4.2 1.2-3.3 0-4.5 0.4-4.5 1.5 0 1.1 1.1 1.5 4 1.5 2.9 0 4 0.4 4 1.5 0 1.1-1.1 1.5-4 1.5-2.2 0-4 0.5-4 1 0 0.5 2 1 4.5 1 3.3 0 4.5 0.4 4.5 1.5 0 1.2-1.3 1.5-12 1.5l0.1-7z"/>
		<path id="Path 26" class="s0" d="m505.5 527c0.8 0 2.5 2 6 9.1l2.3-4.6c1.2-2.5 2.9-4.5 3.7-4.5 0.8 0 1.5 0.5 1.5 1 0 0.5-1.4 3.7-3 7-1.7 3.3-3.7 6-4.5 6-0.8 0-2.8-2.7-4.5-6-1.6-3.3-3-6.5-3-7 0-0.5 0.7-1 1.5-1z"/>
		<path id="Path 27" class="s0" d="m527.1 526.9l5.6 0.3c3.3 0.2 5.8 0.8 6 1.5 0.2 0.7-1.3 1.3-4 1.5-2.3 0.2-4.2 0.8-4.2 1.3 0 0.5 1.7 1.1 3.7 1.3 2.6 0.1 3.8 0.7 3.8 1.7 0 1.1-1.1 1.5-4 1.5-2.2 0-4 0.5-4 1 0 0.5 2 1 4.5 1 3.3 0 4.5 0.4 4.5 1.5 0 1.2-1.3 1.5-12 1.5l0.1-7z"/>
		<path id="Path 28" class="s0" d="m548.5 527c1.2 0 1.5 1.3 1.5 11h4c2.9 0 4 0.4 4 1.5 0 1.2-1.3 1.5-11 1.5v-7c0-5.6 0.3-7 1.5-7z"/>
		<path id="Path 29" fill-rule="evenodd" class="s0" d="m572 527c1.7 0 3.9 0.9 5 2 1.2 1.2 2 3.3 2 5.3 0 1.7-0.8 4-1.8 5-1 1.1-3.1 1.8-5.5 1.7-2 0-4.4-0.7-5.2-1.5-0.8-0.8-1.5-3.1-1.5-5 0-2.2 0.8-4.3 2-5.5 1.1-1.1 3.3-2 5-2zm-4.1 7.1c0.1 0.5 0.3 1.6 0.6 2.4 0.3 0.8 1.5 1.5 2.8 1.5 1.3 0 2.8-0.6 3.5-1.2 0.7-0.7 1.2-1.9 1.2-2.5 0-0.7-0.7-2-1.5-2.8-0.8-0.8-1.9-1.5-2.4-1.5-0.5 0-1.7 0.7-2.6 1.6-0.9 0.8-1.6 2-1.6 2.5z"/>
		<path id="Path 30" fill-rule="evenodd" class="s0" d="m591.9 527c2 0 4.6 0.7 5.9 1.5 1.2 0.8 2.2 2.4 2.2 3.5 0 1.1-1 2.7-2.2 3.5-1.3 0.8-3.3 1.5-4.5 1.5-1.6 0-2.3 0.6-2.3 2q0 2-2 2c-1.8 0-2-0.7-2.2-6.3-0.1-3.5 0.2-6.7 0.7-7 0.5-0.4 2.4-0.7 4.4-0.7zm1.6 6c1.5 0 2.4-0.5 2.2-1.3-0.2-0.6-1.3-1.3-2.4-1.5-1.4-0.2-2.2 0.2-2.2 1.2-0.1 1.1 0.8 1.6 2.4 1.6z"/>
		<path id="Path 31" class="s0" d="m609.5 527c0.8 0 2.5 1.8 6 8.2l2.8-4.1c1.5-2.3 3.2-4.1 3.7-4.1 0.6 0 1 3 1 7 0 5.6-0.3 7-1.5 7-1 0-1.5-1-1.5-6.5l-2 3.3c-1.1 1.7-2.2 3.2-2.5 3.2-0.3 0-1.2-1.2-3.4-5.5l-0.1 2.8c0 2-0.5 2.7-2 2.7-1.8 0-2-0.7-2-7 0-5.6 0.3-7 1.5-7z"/>
		<path id="Path 32" class="s0" d="m632 527h6c4.7 0 6 0.3 6 1.5 0 1.1-1.1 1.5-4 1.5-2.9 0-4 0.4-4 1.5 0 1 1.1 1.5 3.5 1.5 2.4 0 3.5 0.5 3.5 1.5 0 1-1.1 1.5-3.5 1.5-1.9 0-3.5 0.5-3.5 1 0 0.5 1.8 1 4 1 2.9 0 4 0.4 4 1.5 0 1.2-1.3 1.5-12 1.5v-7z"/>
		<path id="Path 33" class="s0" d="m653.9 527c0.3-0.1 2.3 1.7 8.1 8v-4c0-3.2 0.3-4 1.8-3.7 1.4 0.2 1.7 1.4 2 7 0.2 6.1 0 6.7-1.8 6.7-1.1 0-3.3-1.7-7.9-7.5l-0.1 3.8c0 3-0.4 3.7-2 3.7-1.8 0-2-0.7-2.2-6.3-0.1-3.5 0.2-6.7 0.7-7 0.5-0.4 1.1-0.7 1.4-0.7z"/>
		<path id="Path 34" class="s0" d="m679.5 527c5.1 0 6.5 0.3 6.5 1.5 0 0.9-0.9 1.5-2.5 1.5-2.4 0-2.5 0.3-2.5 5.5 0 4.2-0.3 5.5-1.5 5.5-1.1 0-1.6-1.4-1.8-5.3-0.2-4.6-0.5-5.2-2.5-5.5-1.2-0.1-2.2-0.9-2.2-1.7 0-1.2 1.4-1.5 6.5-1.5z"/>
	</g>
</svg>