<svg version="1.2" xmlns="http://www.w3.org/2000/svg" viewBox="0 0 1760 2400" width="1760" height="2400">
	<title>logo-svg</title>
	<style>
		.s0 { fill: #000000 } 
	</style>
	<g id="Background">
		<path id="Path 0" fill-rule="evenodd" class="s0" d="m-500.8 3585.3c-19.1 0-34.6-6.6-34.6-14.8 0-8.2 15.5-14.8 34.6-14.8 19.1 0 34.6 6.6 34.6 14.8 0 8.2-15.5 14.8-34.6 14.8zm2952-742.4l91.9 5.9 193.8 326.3v-331.2l84 4.9 5 489.4-93.9 1-187.9-318.3-4.9 317.3h-89l1-248.1zm-455.8 0.9h79.1v141.4c0 77.1 5 158.2 9.9 179.9 5 23.8 20.8 50.5 38.6 67.3 22.7 19.7 40.5 26.7 70.2 26.7 21.7 0 53.4-8 69.2-17.8 16.8-8.9 36.6-31.7 44.5-49.5 10.8-23.7 14.8-71.1 14.8-348l84 5v173c0 166.1-1 175-24.7 217.5-13.8 23.7-44.5 57.3-67.2 74.1-38.6 26.7-51.4 29.7-115.7 29.7-64.2 0-77.1-3-114.7-29.7-23.7-16.8-52.4-49.4-65.2-74.1-21.8-41.5-22.8-54.4-22.8-219.5zm-894.6 0l67.2 108.8c36.6 59.3 69.2 106.7 74.1 104.8 4-2 35.6-49.5 71.2-104.8 35.6-56.4 68.2-103.8 74.2-105.8 5.9-2 28.6-3 93.9 2l-197.8 316.3v173h-88.9l-1-182.9-88-138.4c-48.4-76.1-91-146.3-94.9-156.2-5.9-14.8-1-16.8 90-16.8zm-262 0v89h-138.4v405.3h-89v-405.3h-148.3l-2-37.6c-1-20.7 2-41.5 6.9-44.5 5-3.9 90-6.9 370.8-6.9zm-781 0h44.5c40.5 0 46.4 3 68.2 37.6 12.8 19.8 57.3 94.9 174 293.6v-331.2h88.9v494.3h-93.9l-187.8-320.3-5 320.3h-88.9zm-343.1 0h91l108.7 238.3c60.3 131.5 109.8 243.2 110.7 248.1 2 4-17.8 7.9-90.9 7.9l-84-187.8c-46.5-102.8-86-187.8-89-187.8-3 0-25.7 47.4-98.9 207.6h64.3c64.2 0 64.2 0 79.1 34.6 7.9 18.7 14.8 38.5 14.8 44.5 0 5.9-39.5 9.8-197.7 9.8l-17.8 39.6c-15.8 38.5-17.8 40.5-64.3 39.5-25.7 0-45.5-3.9-44.5-8.9 2-3.9 51.4-115.6 110.8-247.1zm-467.7 0l67.3 108.7c36.6 59.3 68.2 108.8 71.2 108.8 2.9 1 35.5-48.5 143.3-218.5l47.5 1c25.7 0 46.4 2 46.4 4.9 0 3-42.5 73.2-187.8 306.5v182.9h-89l-1-173-97.9-155.2c-54.3-86-98.8-158.2-98.8-161.2 0-2.9 22.7-4.9 98.8-4.9zm-301.5 2c73.2 2.9 118.7 9.8 138.4 19.7 15.8 8.9 41.5 28.7 56.4 44.5 14.8 14.8 31.6 39.6 36.6 55.4 5.9 14.8 10.8 41.5 10.8 59.3 0 16.8-8.9 49.4-18.8 71.2-8.8 21.7-31.6 51.4-80 93.9l98.8 148.3h-103.8l-44.5-69.2c-37.5-57.4-48.4-69.2-72.1-69.2-14.9 0-26.7-1-26.7-2 0-2 5.9-19.8 14.8-39.5 12.9-32.7 19.8-38.6 56.4-44.5 24.7-3 51.4-15.9 64.2-29.7 14.8-14.8 22.8-34.6 22.8-57.3 0-22.8-8-44.5-23.8-61.3-21.7-24.7-31.6-27.7-164.1-32.6v405.3h-89l-1.9-240.3c-1-136.4 2.9-244.1 7.9-248.1 4.9-4.9 57.3-5.9 117.6-3.9zm2778-5c27.7 2 63.3 9.9 79.1 16.8 15.8 6.9 44.5 25.7 63.3 41.5 17.8 15.9 44.5 48.5 59.3 73.2 21.7 37.6 25.7 56.3 25.7 118.6 0 54.4-4.9 85-19.8 113.7-10.8 21.8-33.6 52.4-49.4 69.2-16.8 15.8-47.5 38.6-69.2 49.5-29.7 14.8-58.3 19.7-113.7 19.7-55.4-1-84-5.9-113.7-20.7-21.7-11.9-56.3-40.6-77.1-64.3-22.7-26.7-43.5-64.3-53.4-97.9-8.9-34.6-12.8-71.1-8.9-98.8 4-24.7 20.8-69.2 38.6-98.9 23.7-40.5 45.5-62.3 86-86 29.6-17.8 65.2-34.6 79.1-36.6 13.8-2 47.4-2 74.1 1zm-155.2 147.3c-9.9 15.8-23.7 43.5-30.6 62.3-7 19.8-7.9 47.4-4 69.2 4 19.8 15.8 50.4 26.7 68.2 10.9 16.8 38.6 41.5 62.3 52.4 30.6 15.8 54.4 19.8 92.9 17.8 31.6-3 61.3-11.9 79.1-24.7 14.8-11.9 36.6-33.6 47.5-48.5 11.8-15.8 21.7-47.4 23.7-77.1 2.9-39.5-1-60.3-17.8-90.9-11.9-21.8-35.6-49.4-53.4-61.3-17.8-11.9-51.4-24.7-76.1-27.7-31.7-3.9-57.4 0-88 12.9-24.7 10.8-52.4 31.6-62.3 47.4zm-996.5-2990.5c269.9 0 380.6 2.9 439.9 13.8 51.4 8.9 108.8 28.7 163.1 55.4 68.3 33.6 100.9 59.3 173 131.5 69.3 69.2 97.9 107.7 125.6 164.1 20.8 40.5 44.5 105.7 52.4 143.3 11.9 49.4 15.8 100.8 12.9 178-3 81-9.9 126.5-52.4 254l58.3 50.5c31.6 28.6 79.1 82 103.8 120.6 25.7 38.5 56.3 97.8 68.2 133.4 11.9 35.6 25.7 93 31.6 128.5 5 35.6 9.9 85.1 9.9 111.8 0 25.7-6.9 81-15.8 123.5-7.9 41.6-28.7 104.8-44.5 140.4-16.8 35.6-53.4 94.9-81 131.5-28.7 36.6-78.1 88-110.8 113.7-32.6 26.7-73.1 55.4-88.9 66.2-15.9 9.9-58.4 29.7-94 43.5-61.3 23.8-75.1 25.7-578.3 35.6l-9.9 204.7-34.6 28.6c-26.7 22.8-44.5 28.7-79.1 28.7-39.5-1-67.2-14.8-266.9-142.4-122.6-78.1-237.3-158.1-255.1-177.9-16.8-19.8-42.5-56.4-55.3-82.1-12.9-26.7-28.7-74.1-34.6-106.7-8.9-42.5-10.9-289.7-6-1710.3l21.8-41.6c12.8-23.7 39.5-58.3 59.3-78.1 20.8-18.7 57.3-40.5 82.1-48.4 33.6-9.9 128.5-13.8 405.3-13.8zm-444.9 1114.1c0 724.7 1 755.3 19.8 805.7 9.9 27.7 33.6 65.3 51.4 83.1 17.8 16.8 120.6 87 227.4 155.2l195.7 124.6-4.9-1458.2c-34.6-61.3-59.3-88-77.1-99.9-17.8-10.9-80.1-48.4-139.4-84-59.3-34.6-132.5-85-161.2-112.7-33.6-30.7-65.2-72.2-83-108.8l-28.7-59.3zm341.1-575.4c21.7 13.9 65.2 39.6 97.9 56.4 31.6 17.8 76.1 52.4 96.8 77.1 21.8 23.7 46.5 65.3 55.4 91.9l16.8 47.5c201.7-5.9 213.5-8.9 237.3-30.6 14.8-13.9 32.6-37.6 40.5-52.4 6.9-14.9 13.8-46.5 13.8-69.2 0-24.8-8.8-55.4-19.7-74.2-10.9-17.8-38.6-40.5-62.3-51.4-37.6-17.8-63.3-19.8-278.8-19.8h-237.3zm271.9 1081.6c376.7 0 403.4-2 430.1-18.8 15.8-9.9 40.5-39.6 53.3-66.2 17.8-36.6 21.8-56.4 15.9-83.1-4-18.8-16.8-47.4-28.7-63.3-11.9-15.8-38.6-36.5-60.3-46.4-33.6-14.9-68.2-17.8-225.4-17.8l-184.9-1zm2402.3 1221.9c24.7 3 62.3 13.9 84.1 22.8 21.7 9.8 47.4 26.6 56.3 36.5 16.8 17.8 16.8 19.8-36.6 72.2l-49.4-23.7c-27.7-13.9-63.3-24.7-79.1-24.7-15.8 0-48.4 8.9-72.2 19.7-27.6 13.9-49.4 33.6-66.2 61.3-16.8 29.7-24.7 58.3-24.7 92 0 35.6 5.9 59.3 21.7 83 12.9 18.8 35.6 43.5 50.5 54.4 17.8 12.8 48.4 22.7 79.1 24.7 40.5 3 60.3-1 93.9-19.8 23.7-12.8 51.4-37.5 62.3-53.4 9.8-16.8 18.7-32.6 18.7-37.5 0-4-49.4-6.9-108.7-6.9-80.1 0-108.8-3-108.8-12.9 0-5.9 3-26.7 14.9-76.1h146.3c142.3 0 145.3 0 149.3 21.7 2.9 12.9 1 40.6-3 62.3-4 21.8-17.8 59.3-31.6 84-12.9 23.8-42.5 58.4-65.3 76.2-23.7 17.8-61.3 37.5-85 43.5-22.7 5.9-64.3 8.9-91 6.9-27.6-3-67.2-12.9-88.9-23.7-21.8-9.9-53.4-33.7-71.2-51.5-17.8-16.8-39.6-46.4-48.5-64.2-8.8-16.8-18.7-58.3-21.7-91-4-44.5-1-72.1 12.9-108.7 10.8-27.7 30.6-62.3 44.4-78.1 13.9-15.8 38.6-37.6 54.4-49.4 15.8-10.9 49.4-25.7 74.2-32.7 24.7-6.9 64.2-9.9 88.9-6.9zm-4621.7 5.9c113.7 3 132.4 6 161.1 25.7 16.8 11.9 38.6 36.6 48.5 54.4 8.9 16.8 15.8 51.4 14.8 76.1-1 24.8-5.9 50.5-11.9 57.4-6.9 7.9-2.9 19.8 12.9 39.5 12.8 14.9 26.7 42.5 30.6 61.3 4 18.8 5 48.5 2 64.3-3 15.8-13.8 41.5-25.7 57.3-10.9 14.9-32.6 33.6-49.4 41.5-19.8 9.9-59.3 14.9-207.6 14.9l36.5-84.1 68.3-2.9c50.4-2 71.1-6.9 81-19.8 6.9-8.9 11.9-26.7 11.9-38.6 0-12.8-6.9-29.6-14.8-37.5-10.9-10.9-38.6-14.8-212.6-14.8v197.7h-89l-2-240.3c-0.9-136.4 3-244.1 8-248.1 4.9-4.9 66.2-5.9 137.4-4zm-54.4 205.7c145.3 0 161.1-3 178-19.8 10.8-10.9 19.7-28.7 19.7-39.5 0-10.9-8.9-28.7-19.7-39.6-16.9-16.8-32.7-19.8-98.9-19.8h-79.1zm0 435h59.3c46.5 0 59.3 3 59.3 14.9 0 10.8-10.8 14.8-39.5 14.8-28.7 0-39.6 3.9-39.6 14.8 0 9.9 10.9 14.8 34.6 14.8 23.8 0 34.6 5 34.6 14.9 0 9.9-10.8 14.8-34.6 14.8-30.6 0-34.6 3-34.6 24.7 0 17.8-4.9 24.7-19.7 24.7-17.8 0-19.8-6.9-19.8-69.2zm236.3 0c20.7-1 46.4 7 60.3 17.8 21.7 16.8 22.7 22.8 13.8 42.5-8.9 18.8-8.9 27.7 2 43.5 7.9 10.9 13.8 22.8 13.8 27.7 0 4-8.9 6.9-19.7 6.9-10.9 0-19.8-4.9-19.8-9.8 0-5-6.9-16.9-14.8-24.8-7.9-7.9-21.8-14.8-29.7-14.8-8.9 0-14.8 8.9-14.8 24.7 0 17.8-5 24.7-19.8 24.7-17.8 0-19.8-6.9-21.7-62.2-1-34.6 1.9-66.3 6.9-69.2 4.9-4 23.7-7 43.5-7zm37.8 45.3c0-7.8-10.2-14.1-22.9-14.1-12.7 0-22.9 6.3-22.9 14.1 0 7.8 10.2 14.1 22.9 14.1 12.7 0 22.9-6.3 22.9-14.1zm197.5-45.3c11.8 0 33.6 10.9 47.4 24.7 13.9 13.9 24.7 35.6 24.7 49.5 0 13.8-8.9 33.6-19.7 44.5q-19.8 19.7-59.4 19.7c-29.6 0-43.4-4.9-54.3-22.7-7.9-11.9-15.8-33.6-15.8-48.4-1-17.8 7.9-32.7 26.7-46.5 14.8-11.9 37.5-20.8 50.4-20.8zm-34.6 79.1c1.9 19.8 7.9 24.7 32.6 24.7 23.7 0 30.6-4.9 33.6-23.7 3-16.8-2-28.7-14.8-37.6-9.9-6.9-21.8-12.8-24.7-12.8-4 0-11.9 5.9-17.8 12.8-6 6-9.9 22.8-8.9 36.6zm198.7-79.1c5.9 0 28.6 18.8 85 84.1l1-42.5c0-29.7 3.9-41.6 14.8-41.6 11.9 0 14.8 13.9 14.8 69.2 0 55.4-2.9 69.2-14.8 69.2-7.9 0-30.6-16.8-83-74.1l-1 37.6c0 25.7-4 36.5-14.8 36.5-11.9 0-14.9-13.8-14.9-69.2 0-48.4 4-69.2 11.9-69.2zm256 0c44.5 0 57.4 3 57.4 14.9 0 7.9-8.9 14.8-19.8 14.8-17.8 0-19.8 6.9-19.8 54.4 0 47.4-1.9 54.3-19.7 54.3-17.8 0-19.8-6.9-19.8-54.3 0-51.4-1-54.4-24.7-54.4-13.9 0-25.7-4-26.7-7.9-1-5 2-11.9 6.9-14.8 4.9-4 34.6-7 66.2-7zm245.2 0h59.3c46.5 0 59.3 3 59.3 14.9 0 10.8-10.8 14.8-39.5 14.8-28.7 0-39.5 3.9-39.5 14.8 0 9.9 10.8 14.9 34.6 14.9 23.7 0 34.6 4.9 34.6 14.8 0 9.9-10.9 14.8-34.6 14.8-18.8 0-34.6 5-34.6 9.9 0 4.9 17.8 9.9 39.5 9.9 28.7 0 39.5 3.9 39.5 14.8 0 11.9-12.8 14.8-118.6 14.8zm216.5 0c3-0.9 22.8 16.8 80.1 79.1v-39.5c0-31.7 3-39.6 17.8-36.6 13.8 2 16.8 13.8 19.8 69.2 1.9 60.3 0 66.2-17.8 66.2-10.9 0-32.7-16.8-78.1-74.1l-1 37.6c0 29.6-4 36.5-19.8 36.5-17.8 0-19.8-6.9-21.7-62.2-1-34.6 1.9-66.3 6.9-69.2 4.9-4 10.9-7 13.8-7zm198.7 0h42.5c26.7-0.9 50.5 6 66.3 18.8 18.8 13.9 24.7 28.7 24.7 55.4 0 24.7-5.9 40.5-19.8 50.4-10.9 7.9-40.5 13.8-113.7 13.8zm67.3 106.8c19.7-2 27.6-8.9 29.6-27.7 2-15.8-2.9-29.6-14.8-37.5-9.9-7-23.7-11.9-29.7-11.9-7.9 0-12.8 14.8-12.8 39.5 0 37.6 2 39.6 27.7 37.6zm257-104.8c7.9 2 19.8 20.8 37.6 82.1l9.9-39.6c4.9-22.7 15.8-39.5 22.7-39.5 7.9 0 18.8 15.8 25.7 34.6 5.9 18.8 13.8 29.6 16.8 24.7 3-5.9 7.9-21.7 11.9-37.6 2.9-14.8 11.8-26.7 17.8-26.7 6.9 0 15.8 3 19.7 7 3 3.9-2.9 35.6-14.8 70.2-17.8 50.4-25.7 61.3-41.5 59.3-10.9-2-21.8-13.9-31.7-52.4l-11.8 26.7c-6 15.8-18.8 27.7-28.7 27.7-11.9 0-21.7-15.9-34.6-59.4-8.9-32.6-16.8-64.2-15.8-70.2 0-5.9 7.9-8.9 16.8-6.9zm305.5-2c39.5 0 52.4 4 52.4 14.9 0 10.8-10.9 14.8-39.6 14.8-28.6 0-39.5 4-39.5 14.8 0 10.9 10.9 14.9 39.5 14.9 28.7 0 39.6 3.9 39.6 14.8 0 10.9-10.9 14.8-39.6 14.8-21.7 0-39.5 5-39.5 9.9 0 4.9 17.8 9.9 39.5 9.9 28.7 0 39.6 3.9 39.6 14.8 0 11.9-12.9 14.9-118.7 14.9l-1.9-62.3c-1-34.6 1.9-66.3 6.9-69.2 4.9-4 31.6-7 61.3-7zm144.3-2.9l46.5 3.9c26.7 2 51.4 7.9 55.3 11.9 5 4.9 9.9 20.8 10.9 34.6 0 14.8 4 33.6 7.9 41.5 3 7.9-1 22.8-9.9 31.7-10.8 12.8-31.6 17.8-113.7 17.8zm73.5 47.7c0-8.1-10.3-14.6-22.9-14.6-12.7 0-22.9 6.5-22.9 14.6 0 8 10.2 14.5 22.9 14.5 12.6 0 22.9-6.5 22.9-14.5zm220.2-44.8h44.5c35.5 0 49.4 5.9 71.1 27.7 20.8 21.7 24.8 32.6 18.8 56.3-2.9 15.9-13.8 35.6-23.7 42.6-8.9 6.9-37.6 11.8-110.7 11.8zm66.2 106.8c22.7-3 27.7-7.9 28.7-29.7 0-19.7-6-30.6-22.8-37.5-11.8-5-24.7-9.9-27.6-9.9-3 0-5 17.8-5 39.5 0 37.6 2 39.6 26.7 36.6zm152.3-107.8l55.3 3c34.6 2 57.4 7.9 59.3 15.8 2 7.9-10.8 11.9-41.5 11.9-32.6 0-44.5 3.9-44.5 14.8 0 10.9 10.9 14.8 39.6 14.8 28.6 0 39.5 4 39.5 14.9 0 10.9-10.9 14.8-39.5 14.8-21.8 0-39.6 5-39.6 9.9 0 4.9 19.8 9.9 44.5 9.9 32.6 0 44.5 3.9 44.5 14.8 0 11.9-12.9 14.8-118.6 14.8l1-69.2zm201.6 1c7.9 0 24.7 19.8 59.3 90l22.8-45.5c11.8-24.7 28.7-44.5 36.6-44.5 7.9 0 14.8 5 14.8 9.9 0 5-13.9 36.6-29.7 69.2-16.8 32.6-36.5 59.3-44.5 59.3-7.9 0-27.6-26.7-44.4-59.3-15.9-32.6-29.7-64.2-29.7-69.2 0-4.9 6.9-9.9 14.8-9.9zm213.6-1l55.3 3c32.7 2 57.4 7.9 59.3 14.8 2 7-12.8 12.9-39.5 14.9-22.7 1.9-41.5 7.9-41.5 12.8 0 5 16.8 10.9 36.6 12.9 25.7 1 37.5 6.9 37.5 16.8 0 10.8-10.8 14.8-39.5 14.8-21.8 0-39.6 4.9-39.6 9.9 0 4.9 19.8 9.9 44.5 9.9 32.6 0 44.5 3.9 44.5 14.8 0 11.9-12.8 14.8-118.6 14.8l1-69.2zm211.5 1c11.9 0 14.9 12.9 14.9 108.8h39.5c28.7 0 39.5 3.9 39.5 14.8 0 11.9-12.8 14.8-108.7 14.8v-69.2c0-55.3 3-69.2 14.8-69.2zm232.4 0c16.8 0 38.5 8.9 49.4 19.8 11.8 11.9 19.8 32.6 19.8 52.4 0 16.8-8 39.5-17.8 49.4-9.9 10.9-30.7 17.8-54.4 16.8-19.8 0-43.5-6.9-51.4-14.8-7.9-7.9-14.8-30.7-14.8-49.4 0-21.8 7.9-42.5 19.7-54.4 10.9-10.9 32.6-19.8 49.5-19.8zm-40.6 70.2c1 5 3 15.8 6 23.7 2.9 7.9 14.8 14.9 27.6 14.9 12.9 0 27.7-6 34.6-11.9 7-6.9 11.9-18.8 11.9-24.7 0-6.9-6.9-19.8-14.8-27.7-7.9-7.9-18.8-14.8-23.8-14.8-4.9 0-16.8 6.9-25.7 15.8-8.9 7.9-15.8 19.8-15.8 24.7zm237.3-70.2c19.8 0 45.5 6.9 58.3 14.8 11.9 8 21.8 23.8 21.8 34.6 0 10.9-9.9 26.7-21.8 34.6-12.8 8-32.6 14.9-44.5 14.9-15.8 0-22.7 5.9-22.7 19.7q0 19.8-19.8 19.8c-17.8 0-19.8-6.9-21.7-62.3-1-34.6 1.9-66.2 6.9-69.2 4.9-3.9 23.7-6.9 43.5-6.9zm37.8 45.2c0-7.7-10.2-14-22.9-14-12.7 0-22.9 6.3-22.9 14 0 7.8 10.2 14.1 22.9 14.1 12.7 0 22.9-6.3 22.9-14.1zm136.2-45.2c7.9 0 24.7 17.8 59.3 81.1l27.7-40.6c14.8-22.7 31.6-40.5 36.6-40.5 5.9 0 9.8 29.7 9.8 69.2 0 55.4-2.9 69.2-14.8 69.2-9.9 0-14.8-9.9-14.8-64.2l-19.8 32.6c-10.9 16.8-21.7 31.6-24.7 31.6-3 0-11.9-11.8-33.6-54.4l-1 27.7c0 19.8-4.9 26.7-19.8 26.7-17.8 0-19.7-6.9-19.7-69.2 0-55.3 2.9-69.2 14.8-69.2zm222.4 0h59.3c46.5 0 59.4 3 59.4 14.8 0 10.9-10.9 14.9-39.6 14.9-28.7 0-39.5 3.9-39.5 14.8 0 9.9 10.8 14.8 34.6 14.8 23.7 0 34.6 5 34.6 14.9 0 9.8-10.9 14.8-34.6 14.8-18.8 0-34.6 4.9-34.6 9.9 0 4.9 17.8 9.9 39.5 9.9 28.7 0 39.6 3.9 39.6 14.8 0 11.9-12.9 14.8-118.7 14.8zm216.5 0c3-1 22.8 16.8 80.1 79.1v-39.5c0-31.7 3-39.6 17.8-36.6 13.8 2 16.8 13.8 19.8 69.2 1.9 60.3 0 66.2-17.8 66.2-10.9 0-32.6-16.8-78.1-74.1l-1 37.5c0 29.7-4 36.6-19.8 36.6-17.8 0-19.8-6.9-21.7-62.3-1-34.6 1.9-66.2 6.9-69.2 4.9-3.9 10.9-6.9 13.8-6.9zm253.1 0c50.4 0 64.3 3 64.3 14.9 0 8.8-8.9 14.8-24.7 14.8-23.8 0-24.8 2.9-24.8 54.4 0 41.5-2.9 54.3-14.8 54.3-10.9 0-15.8-13.8-17.8-52.4-2-45.4-4.9-51.4-24.7-54.3-11.9-1-21.7-8.9-21.7-16.8 0-11.9 13.8-14.9 64.2-14.9z"/>
	</g>
</svg>